<?xml version="1.0"?>
<svg version="1.1" xmlns="http://www.w3.org/2000/svg" width="400px" height="200px" style=""><path fill="#128ee6" d="M128.236,116.1q-2.464,1.904-3.612,1.904q-0.616,0-0.91-0.602t-0.294-1.302q0-1.344,1.134-4.032t2.17-2.688q0.532,0,0.91,2.1t0.77,3.052q1.904-2.016,5.516-6.72q4.536-5.964,6.02-6.524q0.504-0.196,1.036-0.196t0.882,0.224t0.35,0.56q0,0.476-0.812,0.56q-0.98,0.532-3.024,2.576q-2.044,1.988-3.276,3.724q-2.996,4.172-6.16,6.804q1.568,2.324,4.928,2.324q0.364,0,1.092-0.056q7.784-0.728,11.032-6.748q1.316-2.408,1.316-4.76t-1.708-4.228q-1.372-1.54-2.982-1.904t-3.29-0.364q-4.312,0-7.952,1.988q-3.836,2.1-3.836,4.704q0,0.7,0.378,1.148t0.518,0.504l-0.168,0q-0.728-0.14-1.288-0.728q-0.616-0.728-0.616-1.54q0-2.8,3.514-4.816t8.246-2.016q2.184,0,4.48,0.504t4.172,2.408q2.156,2.24,2.156,5.068q0,2.1-1.232,4.34q-2.128,3.864-6.356,5.656q-3.388,1.428-7.308,1.428t-5.796-2.352z M124.428,115.988q0,0.868,0.336,1.512q1.204-0.532,2.912-2.212q-0.812-1.344-1.022-2.114t-0.294-2.03q-1.932,2.772-1.932,4.844z M128.432,108.148q0.028,0,0.056-0.028q0,0.056-0.014,0.056t-0.042-0.028z M151.45276,117.164q-0.308,0-0.56-0.084q-1.792-0.504-1.792-2.016q0-1.96,2.464-4.536t4.424-2.576q0.644,0,1.05,0.35t0.406,0.854q0,1.568-2.366,2.996t-3.85,1.428q-0.224,0-0.392-0.056q-0.42,0.756-0.42,1.596q0,1.456,1.386,1.456t3.598-1.876q1.708-1.372,2.912-2.912q0.252-0.336,0.434-0.336t0.182,0.168t-0.224,0.476q-1.512,1.988-3.64,3.528t-3.612,1.54z M156.74476,109.1q0-0.336-0.714-0.336t-2.03,1.092q-1.764,1.456-2.744,3.052q0.168,0.056,0.364,0.056q1.064,0,2.842-1.134t2.226-2.478q0.056-0.14,0.056-0.252z M166.04552,105.796q0.84,0,1.428,0.56t0.588,1.568q0,2.212-3.668,5.544q-3.108,2.8-5.012,3.416q-0.308,0-0.812-0.336t-0.504-0.616q0-0.616,1.344-4.172t1.848-3.976q0.112-0.112,0.364-0.112t0.532,0.266t0.308,0.63q0,0.028-1.386,3.248t-1.302,3.836q1.204-0.364,4.298-2.94t3.094-4.62q0-1.232-1.232-1.792q-0.196-0.084-0.196-0.252q0-0.252,0.308-0.252z M190.27028,104.816q-1.036,0.42-1.778,0.42t-0.742-0.308q0-0.196,0.826-0.224t1.19-0.196q1.064-0.56,1.064-1.652q0-0.56-0.308-1.176q-0.896-1.596-4.34-1.596q-1.988,0-3.976,0.602t-3.332,1.848t-1.344,2.31q0,1.624,3.22,2.38l3.304,0.616q1.988,0.364,2.968,1.008q1.288,0.784,1.288,2.24q0,0.588-0.196,1.26q-0.896,3.024-4.62,4.62q-3.108,1.372-7.336,1.372q-1.204,0-2.1-0.112q0.896,0.504,2.352,0.868q0.112,0.028,0.112,0.112q0,0.252-0.588,0.252q-1.148,0-2.856-1.372q-2.324-0.364-3.472-1.288q-0.728-0.588-1.344-1.736t-0.616-2.072t0.364-1.54q0.84-1.484,2.128-1.484q0.98,0,1.148,1.652q0.392,3.192,0.532,3.64q0.42,1.372,1.428,2.324q1.176,0.252,2.548,0.252q3.024,0,5.936-1.204t4.2-3.416q0.532-0.868,0.532-1.54q0-1.316-2.324-2.044l-4.928-1.12q-1.512-0.364-2.422-1.204t-0.91-1.932q0-1.68,2.1-3.36q1.596-1.288,3.906-2.002t4.536-0.714t3.682,0.644q1.876,0.868,1.876,2.534t-1.708,2.338z M172.23828,117.304q-1.624-1.792-2.072-4.9q-0.252-1.764-0.476-1.764t-0.42,0.126t-0.392,0.546t-0.196,1.092q0,2.156,1.512,3.696q0.756,0.784,2.044,1.204z M197.61104,110.864q0,0.98-1.876,3.276q-2.212,2.716-3.78,2.716l-0.448,0q-0.728,0-1.148-0.756q-0.336-0.532-0.336-1.176q0-1.68,2.45-4.718t3.962-3.038q1.428,0,1.428,1.512q0,0.392-0.14,1.008q0.028,0.084,0.532,0.084t1.54-0.532q-0.028,0.476-2.212,1.372q0.028,0.112,0.028,0.252z M195.79104,109.408q-0.952,0-2.702,2.24t-1.75,3.304t0.672,1.064q1.204,0,3.052-2.184t1.848-3.136q-0.448-0.252-1.12-1.288z M210.8318,103.108q0,0.868-0.504,0.868q-0.14,0-0.28-0.224q-0.252-0.448-0.84-0.448q-1.288,0-2.408,1.848q-0.224,0.364-1.4,2.632l0.336,0q3.052,0,4.06-0.084q0.112,0.028,0.112,0.112q0,0.224-1.988,0.616q-1.876,0.308-3.08,0.532q-0.868,1.792-2.1,4.256q-2.52,4.704-3.332,5.852q-2.436,3.472-4.76,3.472q-0.812,0-1.414-0.686t-0.63-1.526q0.084-0.336,0.252-0.336q0.084,0,0.112,0.196q0.168,0.728,0.56,1.12t0.812,0.392q2.38,0,4.34-2.94q1.12-1.68,3.052-6.048l1.512-3.64q-2.8-0.028-2.8-0.672q0-0.28,0.266-0.476t0.462-0.196l2.632,0.056q2.744-6.104,5.04-6.104q0.868,0,1.764,0.84q0.224,0.224,0.224,0.588z M214.72856,110.864q0,0.98-1.876,3.276q-2.212,2.716-3.78,2.716l-0.448,0q-0.728,0-1.148-0.756q-0.336-0.532-0.336-1.176q0-1.68,2.45-4.718t3.962-3.038q1.428,0,1.428,1.512q0,0.392-0.14,1.008q0.028,0.084,0.532,0.084t1.54-0.532q-0.028,0.476-2.212,1.372q0.028,0.112,0.028,0.252z M212.90856,109.408q-0.952,0-2.702,2.24t-1.75,3.304t0.672,1.064q1.204,0,3.052-2.184t1.848-3.136q-0.448-0.252-1.12-1.288z"/><path fill="#" d=""/></svg>
